<svg width="12" height="12" viewBox="0 0 12 12" fill="none" xmlns="http://www.w3.org/2000/svg">
<path fill-rule="evenodd" clip-rule="evenodd" d="M4.57602 0L4.27548 1.51406C3.77432 1.70028 3.31091 1.96044 2.90399 2.28867L1.42397 1.78711L0 4.21289L1.18425 5.2242C1.14227 5.4774 1.11508 5.73516 1.11508 6C1.11508 6.26484 1.14227 6.5226 1.18425 6.7758L0 7.7871L1.42397 10.2129L2.90399 9.7113C3.31091 10.0396 3.77432 10.2997 4.27548 10.486L4.57602 12H7.42394L7.72448 10.486C8.22568 10.2997 8.68907 10.0396 9.09598 9.7113L10.576 10.2129L12 7.7871L10.8157 6.7758C10.8577 6.5226 10.8849 6.26484 10.8849 6C10.8849 5.73516 10.8577 5.4774 10.8157 5.2242L12 4.21289L10.576 1.78711L9.09598 2.28867C8.68907 1.96044 8.22568 1.70028 7.72448 1.51406L7.42394 0H4.57602ZM5.99999 3.6C7.34884 3.6 8.44244 4.6746 8.44244 6C8.44244 7.3254 7.34884 8.4 5.99999 8.4C4.65115 8.4 3.55754 7.3254 3.55754 6C3.55754 4.6746 4.65115 3.6 5.99999 3.6Z" fill="#8D99A7"/>
</svg>
